<?xml version="1.0" encoding="UTF-8" standalone="no"?>
<!DOCTYPE svg  PUBLIC '-//W3C//DTD SVG 1.1//EN'  'http://www.w3.org/Graphics/SVG/1.1/DTD/svg11.dtd'>
<svg xmlns="http://www.w3.org/2000/svg" xml:space="preserve" height="100%" width="100%" version="1.1" preserveAspectRatio="xMinYMin" viewBox="0 0 1000.0 1000.0">
	<style/>
	<g id="g2784" xmlns:inkscape="http://www.inkscape.org/namespaces/inkscape" xmlns:rdf="http://www.w3.org/1999/02/22-rdf-syntax-ns#" xmlns="http://www.w3.org/2000/svg" class="avatar-girl" xmlns:svg="http://www.w3.org/2000/svg" label="avatar-girl" xmlns:xlink="http://www.w3.org/1999/xlink" xmlns:cc="http://creativecommons.org/ns#" xmlns:sodipodi="http://sodipodi.sourceforge.net/DTD/sodipodi-0.dtd" xmlns:dc="http://purl.org/dc/elements/1.1/">
		<path id="path2786" d="m503.1 120c-148.4 0-266.4 96.4-284.8 289.3-12.4 129.6 17.3 337.6 152 461 15.8 14.2 25.1 8.7 23.8-1.6-7.1-55.2-1.7-143.9 27.1-127.6 55.5 31.4 132.5 38.3 178.5 2.4 33.4-26.1 53.8 59 45.7 124.6-1.8 14.9 13.4 16.4 26.7 1.2 88.4-103.1 187.2-539.2 26.9-678-52-45-121.6-71.3-195.9-71.3zm82 175.9c79.3-21.2 140 69.2 134.7 159.7-3.9 66.2-18.5 155.5-58 203.5-59.2 71.8-100.4 85.4-142 85.4-61.8 0-129.7-44.3-166.4-91.7-21.9-28.2-49-82.6-48.1-135.2 0.2-11.2 17.6-34.8 41.9-61.2 0.4 0 1-0.1 1.4-0.2 0 0 42.8-8.7 61.4-8.5 18 0.1 59.3 8.5 59.3 8.5 3 0.8 6.3-0.1 8.8-2.2 2.6-2 4.3-5.5 4.8-9.1 0.6-3.7-0.2-7.6-2-10.6-1.8-3.1-4.7-5.1-7.7-5.6 0 0-40-8.8-63-9-8.5 0-19 1.1-29.2 2.5 26.5-25.2 55.3-49.4 78.3-64.9 54.3-36.5 93.6-52.8 125.8-61.4zm12.4 121.6c-24.3 0.4-63.2 8.9-63.2 8.9-3 0.6-5.8 2.7-7.6 5.7s-2.6 6.9-2.1 10.6c0.5 3.6 2.4 7 4.9 9.1s5.7 2.9 8.7 2.2c0 0 42.9-8.7 61.5-8.5 17.9 0.1 59.2 8.5 59.2 8.5 3.1 0.7 6.3-0.1 8.8-2.1 2.6-2.2 4.4-5.6 4.9-9.2 0.5-3.7-0.2-7.6-2-10.7-1.9-3-4.7-5-7.7-5.6 0 0-40-8.7-63.1-8.9zm-39.5 140.7c-1.9 0-3.8 0.7-5.4 1.7 0 0-7.1 4.5-16.1 9-8.9 4.5-20.1 8.5-23.9 8.5-3.9 0-15.7-3.9-24.9-8.4-9.2-4.6-16.6-9.1-16.6-9.1-1.8-1.1-3.6-1.7-5.5-1.6-2.6 0-5.1 1.1-7.1 3.1-2 1.9-3.3 4.6-3.9 7.6s-0.3 6.2 0.8 9c1.1 2.7 3 5 5.2 6.4 0 0 8.3 4.9 18.5 9.9 10.2 5.1 22 10.6 33.7 10.5 11.5 0 22.7-5.6 32.6-10.6s17.7-10 17.7-10c2.8-1.6 4.9-4.5 5.9-8 0.9-3.5 0.6-7.4-0.8-10.6-1.3-3.2-3.9-5.8-6.8-6.8-1.1-0.4-2.2-0.6-3.4-0.6z"/>
	</g>
	<script><![CDATA[(function(){if(document.location.hash){var d=[],e,c,g=!1,b="",f=!1;location.href.split("?")[1].split("&").forEach(function(a){rule=a.split("=");key=rule[0];val=rule[1];"id"!=key?(f=!0,d.push(rule)):c=val});f&&(e=c?document.getElementById(c):document.getElementsByTagName("svg")[0])&&(d.forEach(function(a){2==a.length&&(val=a[1],(g=/(^#[0-9A-F]{6}$)|(^#[0-9A-F]{3}$)/i.test(val))&&(b+=a[0]+":"+val+";"))}),""!==b&&e.setAttribute("style",b))}})();]]></script>
</svg>
